<svg width="98" height="98" viewBox="0 0 98 98" fill="none" xmlns="http://www.w3.org/2000/svg">
<path d="M17.5175 0.364079C18.1413 0.663957 18.6678 1.13388 19.0362 1.71974C19.4046 2.3056 19.6001 2.98357 19.6 3.6756C19.6 7.74152 21.1288 10.0831 23.0447 12.9341L23.1868 13.1399C24.8136 15.5598 26.95 18.7293 26.95 23.2704C26.95 27.9046 24.6127 31.9901 21.0504 34.4149C21.9863 35.1987 22.8144 36.1638 23.5298 37.3198C25.8622 41.0918 26.95 46.8576 26.95 55.1364C26.95 63.523 25.823 73.5947 23.9855 81.6384C23.0741 85.6357 21.9422 89.3244 20.5947 92.0922C19.9585 93.4693 19.1158 94.7413 18.0957 95.8642C17.0863 96.8978 15.533 98 13.475 98C11.417 98 9.8637 96.8978 8.8592 95.8642C7.83613 94.7436 6.99311 93.4711 6.3602 92.0922C5.0078 89.3195 3.8759 85.6357 2.9645 81.6335C1.05324 72.9272 0.0596521 64.0447 4.72117e-06 55.1315C4.72117e-06 46.8527 1.0878 41.0918 3.4202 37.3198C4.08561 36.225 4.92276 35.2441 5.8996 34.4149C4.0806 33.1803 2.5918 31.519 1.56336 29.5762C0.534923 27.6335 -0.00183655 25.4684 4.72117e-06 23.2704C4.72117e-06 21.4677 4.23491e-06 18.3668 1.8767 14.3646C3.7142 10.4456 7.20791 5.9437 13.6269 0.804963C14.1679 0.37233 14.8202 0.101386 15.5086 0.0233795C16.197 -0.0546273 16.8934 0.0634792 17.5175 0.364079ZM7.35 23.2655C7.35 24.8895 7.99531 26.4519 9.14398 27.6003C10.2926 28.7486 11.8506 29.3938 13.475 29.3938C15.0995 29.3938 16.6574 28.7486 17.806 27.6003C18.9547 26.4519 19.6 24.8944 19.6 23.2704C19.6 21.1199 18.6935 19.6307 16.9442 17.0294L16.8854 16.9413C15.7633 15.2757 14.4354 13.3015 13.4946 10.7689C10.8339 13.473 9.3639 15.7166 8.5358 17.4801C7.35 20.0079 7.35 21.8106 7.35 23.2655ZM9.6726 41.1751C8.4574 43.1444 7.35 47.1809 7.35 55.1315C7.35 62.9743 8.4182 72.4974 10.1283 79.9973C10.9907 83.7693 11.9707 86.831 12.9654 88.8688C13.1467 89.246 13.3182 89.5595 13.475 89.8241C13.6318 89.5595 13.8033 89.246 13.9846 88.8688C14.9793 86.831 15.9593 83.7644 16.8217 79.9973C18.5367 72.5023 19.6 62.9792 19.6 55.1315C19.6 47.1809 18.4926 43.1444 17.2774 41.1751C16.9109 40.5122 16.357 39.972 15.6849 39.6222C14.989 39.3193 14.2333 39.1785 13.475 39.2107C12.495 39.2107 11.7943 39.3626 11.2651 39.6222C10.593 39.972 10.0391 40.5122 9.6726 41.1751ZM39.2 63.2829C36.604 62.8476 34.0789 62.0632 31.6932 60.9512C31.8366 58.1728 31.8775 55.3901 31.8157 52.6087C34.0256 54.093 36.5197 55.1854 39.2 55.7928V41.6405C39.2 39.6917 39.9744 37.8227 41.3528 36.4446C42.7312 35.0666 44.6007 34.2924 46.55 34.2924H66.15C66.1498 30.1809 64.9994 26.1514 62.8288 22.6592C60.6583 19.167 57.5541 16.3512 53.8669 14.53C50.1798 12.7088 46.0567 11.9549 41.9634 12.3533C37.8702 12.7517 33.9699 14.2865 30.7034 16.7845C29.7234 14.0755 28.3269 12.0034 27.3567 10.5632L27.1607 10.2692C31.5631 7.16664 36.7335 5.33276 42.1075 4.96782C47.4815 4.60287 52.8525 5.72088 57.6341 8.1998C62.4158 10.6787 66.4244 14.4233 69.2223 19.0247C72.0203 23.6261 73.5 28.9075 73.5 34.2924H90.65C92.5993 34.2924 94.4688 35.0666 95.8472 36.4446C97.2256 37.8227 98 39.6917 98 41.6405V85.7288C98 87.6776 97.2256 89.5466 95.8472 90.9246C94.4688 92.3026 92.5993 93.0768 90.65 93.0768H46.55C44.6007 93.0768 42.7312 92.3026 41.3528 90.9246C39.9744 89.5466 39.2 87.6776 39.2 85.7288V63.2829ZM46.55 63.5916V85.7337H90.65V41.6454H72.569C71.0424 47.5484 67.7184 52.8312 63.0571 56.7629C58.3957 60.6946 52.6273 63.0809 46.55 63.5916ZM64.8956 41.6454H46.55V56.2092C50.667 55.7478 54.5709 54.1371 57.8152 51.5616C61.0595 48.9861 63.5132 45.5497 64.8956 41.6454Z" fill="white"/>
</svg>
